# xmcd CD database file
#
# Track frame offsets:
#	150
#	5525
#	18500
#	22525
#	28600
#	42210
#	56965
#	68092
#	78247
#	91095
#	105665
#	123557
#	137897
#	165005
#	181412
#	193835
#	208227
#	228902
#	242045
#	250522
#	261452
#	294010
#	302042
#	311570
#	325582
#	337815
#
# Disc length: 4565 seconds
#
# Revision: 3
# Processed by: cddbd v1.5.2PL0 Copyright (c) Steve Scherf et al.
# Submitted via: CDex 1.51
#
DISCID=5211d31a
DTITLE=Edvard Grieg - Songs - Lieder Vol.3
DYEAR=1991
DGENRE=Classique
TTITLE0=Seven children's songs, Op.61- The ocean
TTITLE1=Seven children's songs, Op.61- The christmas tree
TTITLE2=Seven children's songs, Op.61- Farmyard-song
TTITLE3=Seven children's songs, Op.61- Fisherman's song
TTITLE4=Seven children's songs, Op.61- Good night song for Dobbin
TTITLE5=Seven children's songs, Op.61- The Norwegian mountains
TTITLE6=Seven children's songs, Op.61- Fatherland hymn
TTITLE7=Songs from ''Haugtussa'' EG 152d - The sparrow
TTITLE8=Songs from ''Haugtussa'' EG 152f - In the hayfield
TTITLE9=Songs from ''Haugtussa'' EG 152g - Veslemoy wondering
TTITLE10=Songs from ''Haugtussa'' EG 152h - Doomed
TTITLE11=Songs from ''Haugtussa'' EG 152j - Veslemoy longing
TTITLE12=Songs from ''Haugtussa'' EG 152L - Cow-call
TTITLE13=The Mountain Maid, Op.67 - The enticement
TTITLE14=The Mountain Maid, Op.67 - Veslemøy.The young maiden
TTITLE15=The Mountain Maid, Op.67 - Blueberry slope
TTITLE16=The Mountain Maid, Op.67 - The tryst
TTITLE17=The Mountain Maid, Op.67 - Love
TTITLE18=The Mountain Maid, Op.67 - Kidlings' dance
TTITLE19=The Mountain Maid, Op.67 - Hurtful day
TTITLE20=The Mountain Maid, Op.67 - At the brook
TTITLE21=EG 124 - Clara's song
TTITLE22=EG 127 - I love you, dear
TTITLE23=EG 133 - The princess
TTITLE24=EG 134 - Sighs
TTITLE25=EG 139 - Morning payer at school
EXTD=YEAR: 1991
EXTT0=
EXTT1=
EXTT2=
EXTT3=
EXTT4=
EXTT5=
EXTT6=
EXTT7=
EXTT8=
EXTT9=
EXTT10=
EXTT11=
EXTT12=
EXTT13=
EXTT14=
EXTT15=
EXTT16=
EXTT17=
EXTT18=
EXTT19=
EXTT20=
EXTT21=
EXTT22=
EXTT23=
EXTT24=
EXTT25=
PLAYORDER=
